{"title":"The Stranger Within 2013 DVDRiP XViD UNiQUE","uid":8867202,"size":1489561600,"categoryP":"video","categoryS":"movies","magnet":"?xt=urn:btih:57e1b129f6f58e84cbdeb7b59fcaaaaf83fcb003&amp;dn=The+Stranger+Within+2013+DVDRiP+XViD+UNiQUE&amp;tr=udp%3A%2F%2Ftracker.openbittorrent.com%3A80&amp;tr=udp%3A%2F%2Fopen.demonii.com%3A1337&amp;tr=udp%3A%2F%2Ftracker.coppersurfer.tk%3A6969&amp;tr=udp%3A%2F%2Fexodus.desync.com%3A6969","seeders":0,"leechers":1,"uploader":"EliteScene","files":2,"time":1377907423,"description":"[img]http://www.theminibear.com/images/1377503727.jpg[/img]\n\n\nFormat : AVI\nFormat/Info : Audio Video Interleave\nFile size : 1.37 GiB\nDuration : 1h 30mn\nOverall bit rate : 2 173 Kbps\nWriting application : VirtualDubMod 1.5.10.2 (build 2540/release)\nWriting library : VirtualDubMod build 2540/release\n\nVideo\nID : 0\nFormat : MPEG-4 Visual\nFormat profile : Advanced Simple@L5\nFormat settings, BVOP : 2\nFormat settings, QPel : No\nFormat settings, GMC : No warppoints\nFormat settings, Matrix : Default (H.263)\nMuxing mode : Packed bitstream\nCodec ID : XVID\nCodec ID/Hint : XviD\nDuration : 1h 30mn\nBit rate : 1 716 Kbps\nWidth : 720 pixels\nHeight : 304 pixels\nDisplay aspect ratio : 3:2\nOriginal display aspect ratio : 2.35:1\nFrame rate : 23.976 fps\nColor space : YUV\nChroma subsampling : 4:2:0\nBit depth : 8 bits\nScan type : Progressive\nCompression mode : Lossy\nBits/(Pixel*Frame) : 0.327\nStream size : 1.09 GiB (79%)\nWriting library : XviD 64\n\nAudio\nID : 1\nFormat : AC-3\nFormat/Info : Audio Coding 3\nMode extension : CM (complete main)\nFormat settings, Endianness : Big\nCodec ID : 2000\nDuration : 1h 30mn\nBit rate mode : Constant\nBit rate : 448 Kbps\nChannel(s) : 6 channels\nChannel positions : Front: L C R, Side: L R, LFE\nSampling rate : 48.0 KHz\nBit depth : 16 bits\nCompression mode : Lossy\nStream size : 290 MiB (21%)\nAlignment : Aligned on interleaves\nInterleave, duration : 42 ms (1.00 video frame)\nInterleave, preload duration : 512 ms\n\n\n\n\nStoryline\n\nAfter a traumatic ordeal, acclaimed actress Emily Moore (Warren) and her psychiatrist husband, Robert (Baldwin), escape on a relaxing vacation to a gorgeous remote Mediterranean island. But on the first night at the house, a young woman (Butler) arrives, with blood on her hands and hysterical from the death of her boyfriend in a hiking accident. Robert offers to take in and help the young girl, but her suggestive behavior makes Emily wonder if she might be a threat to their marriage... or her life.\n\n\n\n\n\nSource Used The Stranger Within 2013 DVDR R1 NTSC Latino - Thanks\n\n\n\n\n\nGreets now going out to !\n\n\n","torrent":{"xt":"urn:btih:57e1b129f6f58e84cbdeb7b59fcaaaaf83fcb003","amp;dn":"The+Stranger+Within+2013+DVDRiP+XViD+UNiQUE","amp;tr":["udp%3A%2F%2Ftracker.openbittorrent.com%3A80","udp%3A%2F%2Fopen.demonii.com%3A1337","udp%3A%2F%2Ftracker.coppersurfer.tk%3A6969","udp%3A%2F%2Fexodus.desync.com%3A6969"],"infoHash":"57e1b129f6f58e84cbdeb7b59fcaaaaf83fcb003","infoHashBuffer":{"type":"Buffer","data":[87,225,177,41,246,245,142,132,203,222,183,181,159,202,170,175,131,252,176,3]},"announce":[],"urlList":[]}}